<?xml version="1.0" encoding="UTF-8"?><svg id="Layer_1" xmlns="http://www.w3.org/2000/svg" viewBox="0 0 1827.39 1039.29"><defs><style>.cls-1{fill:#f4ddb5;}</style></defs><path class="cls-1" d="M1315.04,1001.23c.26,.58,.83,.96,1.46,1,.47,.1,.95-.02,1.31-.34,.08-.07-.05-.29-.16-.4-.48-.47-1.1-.77-1.77-.85-.54,.05-.94,.25-.84,.59Z"/><path class="cls-1" d="M1165.83,446.47c.21,.36,.58,.6,1,.64,.39,.06,.77-.18,.86-.57,0-.35-.18-.64-.68-.81-.24-.06-.48-.06-.72,0-.59,.1-.71,.36-.46,.74Z"/><polygon class="cls-1" points="1180.65 442.65 1180.27 442.73 1180.57 442.91 1180.65 442.65"/><path class="cls-1" d="M1264.55,601.1c-.57,.15-1.11,.8-1,1.2,.13,.37,.42,.66,.79,.79,1.05,.52,2.28,.52,3.33,0,1-.44,1.09-1.07,.22-1.58-.59-.37-1.26-.57-1.95-.58-.47,.03-.93,.09-1.39,.17h0Z"/><path class="cls-1" d="M1160.27,782.4c.23,.06,.48,.06,.71,0,.16,0,.36-.24,.33-.33-.2-.38-.57-.65-1-.72-.18,.07-.44,.12-.52,.22-.2,.33-.04,.65,.48,.83h0Z"/><path class="cls-1" d="M1423.38,826.26c.24,.35,.66,.53,1.08,.47,.19-.01,.38-.08,.53-.2,.23-.24,0-.46-.5-.6-.22-.03-.43-.03-.65,0-.19,.05-.49,.27-.46,.33Z"/><path class="cls-1" d="M1500.49,800.26c-.61,.09-1.15,.46-1.45,1-.22,.38,.44,.8,1.41,.78,1.42-.11,2.84,.18,4.1,.85,.39,.22,.79,.41,1.2,.58,.41,.17,.86,.31,1.29,.47,.89,.3,1.88,.16,2.65-.38,.38-.44,.62-.91,.21-1.4-.37-.44-.76-.86-1.17-1.26-.7-.57-1.56-.92-2.46-1-.71-.09-1.45-.1-2.19-.15-1,.11-1.94,.21-2.9,.33-.24,.05-.46,.13-.69,.18h0Z"/><path class="cls-1" d="M1286.59,673.25c-.61,.09-1.15,.46-1.45,1-.22,.38,.44,.8,1.41,.78,1.42-.11,2.84,.18,4.1,.85,.39,.22,.79,.41,1.2,.58,.41,.17,.86,.31,1.29,.47,.89,.3,1.88,.16,2.65-.38,.38-.44,.62-.91,.21-1.4-.37-.44-.76-.86-1.17-1.26-.7-.57-1.56-.92-2.46-1-.71-.09-1.45-.1-2.19-.15-1,.11-1.94,.21-2.9,.33-.24,.05-.46,.13-.69,.18h0Z"/><path class="cls-1" d="M969.45,899.61c-.61,.09-1.15,.46-1.45,1-.22,.38,.44,.8,1.41,.78,1.42-.11,2.84,.18,4.1,.85,.39,.22,.79,.41,1.2,.58,.41,.17,.86,.31,1.29,.47,.89,.3,1.88,.16,2.65-.38,.38-.44,.62-.91,.21-1.4-.37-.44-.76-.86-1.17-1.26-.7-.57-1.56-.92-2.46-1-.71-.09-1.45-.1-2.19-.15-1,.11-1.94,.21-2.9,.33-.24,.05-.46,.13-.69,.18h0Z"/><path class="cls-1" d="M1445.24,635.18c0-.1-.23-.28-.42-.33-.42-.13-.88-.02-1.2,.28,.28,.33,.73,.47,1.15,.37,.19-.03,.45-.2,.47-.32Z"/><path class="cls-1" d="M1220.44,594.05c.13,.11,.33,.32,.39,.31,.62-.16,.64-.39,0-.59-.01-.02-.24,.21-.39,.28Z"/><path class="cls-1" d="M1526.86,528.67c-.21-.05-.42-.08-.64-.09-.06,0-.12,.15-.18,.24,.2,.05,.41,.09,.62,.11,.07,.05,.13-.17,.2-.26h0Z"/><path class="cls-1" d="M394.94,969.73c.04-.14,0-.29-.08-.41,0-.05-.26,0-.4-.05s-.18,.27-.16,.39,.17,.27,.25,.4c.14-.08,.33-.21,.39-.33h0Z"/><path class="cls-1" d="M1492.65,515.38c-.16-.15-.35-.26-.56-.31-.76-.2-1.93,0-2,.32,0,.1,.18,.27,.34,.34,.63,.31,1.37,.31,2,0,.15-.08,.27-.29,.22-.35h0Z"/><path class="cls-1" d="M1427.08,569.39c-.08,0-.29,.14-.45,.22,.13,.09,.29,.28,.37,.27,.6-.1,.63-.3,.08-.49Z"/><path class="cls-1" d="M1394.47,917.98c-.18,.07-.34,.17-.48,.29,.14,.12,.29,.22,.46,.29,.16,.28,.52,.38,.8,.22,.28-.16,.38-.52,.22-.8s-.52-.38-.8-.22c-.09,.05-.17,.13-.22,.22h.02Z"/><polygon class="cls-1" points="1453.62 898.84 1454.08 899.05 1454.13 898.71 1453.62 898.84"/><path class="cls-1" d="M866.92,154.7c-.14,.07-.35,.13-.4,.22-.06,.14-.03,.29,.07,.4,.3,.25,.56,.14,.6-.27,.01-.08-.17-.23-.27-.35h0Z"/><path class="cls-1" d="M875.76,115.31c-.77-.82-1.88-1.22-3-1.09-.44,.07-.88,.16-1.31,.28-.76,.17-1.36,.77-1.54,1.53-.09,.51,.38,.93,.82,1.32,.67,.63,1.65,.82,2.51,.48,1.02-.21,1.94-.77,2.58-1.59,.24-.27,.21-.69-.06-.93h0Z"/><path class="cls-1" d="M914.42,201.62c-.77-.82-1.88-1.22-3-1.09-.44,.07-.88,.16-1.31,.28-.76,.17-1.36,.77-1.54,1.53-.09,.51,.38,.93,.82,1.32,.67,.63,1.65,.82,2.51,.48,1.02-.21,1.94-.77,2.58-1.59,.24-.27,.21-.69-.06-.93h0Z"/><path class="cls-1" d="M872.75,176.09c-.11,.13-.33,.26-.32,.38,0,.59,.26,.61,.5,.07,.06-.13-.11-.3-.18-.45h0Z"/><path class="cls-1" d="M1688.56,310.48c.16,.15,.34,.26,.54,.34,.66,.21,1.34,.39,1.85,.54,.55,.06,1.1,.06,1.65,0,.39-.15,.76-.37,1.09-.63,.32-1.06-.08-2.2-1-2.82-.76-.49-1.59-.85-2.46-1.08-.67-.23-1.4-.09-1.94,.37-.8,.99-.68,2.43,.27,3.28h0Z"/><path class="cls-1" d="M1617.05,435.07c.16,.15,.34,.26,.54,.34,.66,.21,1.34,.39,1.85,.54,.55,.06,1.1,.06,1.65,0,.39-.15,.76-.37,1.09-.63,.32-1.06-.08-2.2-1-2.82-.76-.49-1.59-.85-2.46-1.08-.67-.23-1.4-.09-1.94,.37-.8,.99-.68,2.43,.27,3.28h0Z"/><polygon class="cls-1" points="1594.61 32.01 1594.28 31.85 1594.22 32.09 1594.61 32.01"/><path class="cls-1" d="M1750.28,51.17c.3,.26,.72,.33,1.08,.16,.14-.08,.24-.22,.28-.38,.08-.33-.1-.63-.56-.77-.41-.17-.88-.08-1.2,.22-.19,.24,.05,.57,.4,.77Z"/><path class="cls-1" d="M1610.93,43.26c.26,.37,.73,.52,1.16,.37,.18,0,.3-.23,.45-.35-.27-.37-.76-.52-1.19-.34-.16,.03-.46,.26-.42,.32Z"/><path class="cls-1" d="M894.78,147.44c-.22-.06-.44-.09-.67-.11-.09,0-.16,.17-.24,.26,.21,.06,.44,.1,.66,.12,.09,0,.17-.17,.25-.27h0Z"/><path class="cls-1" d="M1739.8,80.41c.57,.17,1,0,1.2-.36,0-.08-.29-.25-.45-.37-.45-.15-.94,0-1.21,.39-.04,.06,.26,.28,.46,.34Z"/><polygon class="cls-1" points="1491.38 74.99 1491.24 74.72 1491 74.96 1491.38 74.99"/><path class="cls-1" d="M1725.38,89.37c-.21,.42,.57,1.08,1.22,1,.47-.06,.95-.15,1.41-.27,.44-.06,.81-.34,1-.74,.12-.34-.64-.92-1.35-1-.23-.04-.46-.04-.69,0-.65,.09-1.23,.46-1.59,1.01h0Z"/><path class="cls-1" d="M1794.43,89.17c0,.3,.39,.48,.87,.46s.83-.19,.77-.45-.3-.22-.49-.27c-.22-.04-.44-.04-.66,0-.2,.06-.5,.17-.49,.26Z"/><path class="cls-1" d="M1794.92,519.28c.58,.54,1.19,1.06,1.76,1.6,.27,.31,.68,.45,1.08,.36,.17-.09,.29-.24,.33-.43,.06-.33,.09-.66,.09-1,.13-.75-.37-1.45-1.12-1.58-.05,0-.11-.02-.16-.02-1.12-.22-1.79-.94-2.91-1.12v.31c.05,.72,.39,1.4,.93,1.88h0Z"/><path class="cls-1" d="M1794.13,522.36c.06,.14,.3,.24,.46,.36,.48-.19,.69-.48,.52-.85-.1-.16-.25-.28-.42-.35-.47,.18-.7,.46-.56,.84h0Z"/><path class="cls-1" d="M1793.99,517.1v-.19c-.1-.03-.19-.07-.28-.11,.02,.08,.05,.16,.08,.24,.07,.02,.13,.04,.2,.06h0Z"/><path class="cls-1" d="M1826.89,584.28h.3c.11,0,.13-.19,.2-.3-.21,0-.41,.11-.5,.3Z"/><path class="cls-1" d="M1826.77,584.47c.03-.07,.07-.13,.12-.19l-.32,.05,.2,.14Z"/><path class="cls-1" d="M1826.59,584.53c.06-.03,.12-.05,.18-.06l-.2-.14c.01,.07,.02,.13,.02,.2h0Z"/><path class="cls-1" d="M1795.89,560.83c.07,.46,1,1,1.56,.85,.42-.07,.7-.47,.62-.89-.02-.14-.08-.26-.17-.37-.31-.37-.82-.51-1.27-.34-.5,.14-.74,.42-.74,.75h0Z"/><polygon class="cls-1" points="56.67 767.36 56.31 767.19 56.24 767.44 56.67 767.36"/><path class="cls-1" d="M699.17,951.67c0,.32,.39,.6,.78,.81,.47,.26,.99,.44,1.52,.52h2c.51,0,1.17-.78,1-1.18-.47-.74-1.28-1.19-2.16-1.18-.72,.08-1.44,.21-2.15,.37-.46,.09-.9,.33-.99,.66Z"/><path class="cls-1" d="M72.06,1004.45c-.4-.18-.88-.07-1.16,.27,0,0,.24,.28,.43,.33,.41,.15,.87,.04,1.17-.28-.13-.13-.28-.24-.44-.32Z"/><polygon class="cls-1" points="756.73 356.46 756.41 356.28 756.34 356.56 756.73 356.46"/><path class="cls-1" d="M1401.17,576.91c.11,.17,.29,.28,.49,.31,.46,0,.74-.26,.7-.6s-.32-.54-.73-.52c-.37,.19-.57,.47-.46,.81Z"/><path class="cls-1" d="M.05,733.72c.21,.35,.59,.57,1,.58,.43,.06,.87-.1,1.16-.43,.29-.36,.14-.62-.3-.83-.39-.22-.86-.26-1.28-.11-.53,.18-.74,.45-.58,.79Z"/><path class="cls-1" d="M73.19,590.59c-1.4-.44-2.86-.62-4.32-.53-.54,0-.93,.24-1,.53,0,.13,.14,.35,.32,.44,1,.51,2,1,3,1.46,.23,.07,.46,.12,.7,.15,.45-.09,.89-.22,1.32-.38,.98-.47,.98-1.39-.02-1.67h0Z"/><polygon class="cls-1" points="51.89 755.46 52.36 755.49 52.16 755.18 51.89 755.46"/><path class="cls-1" d="M44.58,753.78c0,.15,.02,.29,.07,.43l.38-.1c0-.14-.06-.28-.08-.42-.13,.03-.37,.05-.37,.09h0Z"/><polygon class="cls-1" points="46.14 751.4 46.51 751.29 46.2 751.13 46.14 751.4"/><path class="cls-1" d="M79.12,772.78c-.18-.11-.38-.18-.59-.22-.22,0-.45,.05-.66,.11l.17,.31c.22,.05,.45,.08,.68,.07,.16-.04,.27-.18,.4-.27Z"/><path class="cls-1" d="M1431.76,556.4c-.09,0-.35,.19-.54,.29l.46,.37c.7-.19,.74-.43,.08-.66h0Z"/><path class="cls-1" d="M1524.94,514.23c-.02-.15-.06-.3-.11-.45-.18-.35-.58-.47-1.13-.32s-.69,.41-.5,.76c.19,.37,.58,.61,1,.61,.36,0,.67-.25,.74-.6Z"/><path class="cls-1" d="M227.29,727.91c1.07,.17,2.17-.09,3.05-.72,.34-.27,.5-.55,.41-.86-.25-.58-.83-.94-1.46-.89-.45,0-.91,.04-1.35,.14-.6,.16-1.16,.48-1.61,.91-.69,.64-.33,1.28,.96,1.42Z"/><polygon class="cls-1" points="52.3 741.29 52.34 741 51.89 741.12 52.3 741.29"/><polygon class="cls-1" points="1448.59 668.26 1448.17 668.08 1448.12 668.37 1448.59 668.26"/><path class="cls-1" d="M1398.69,694.77c0,.07,.4,.29,.45,.27,.29-.1,.47-.4,.43-.7-.4,.01-.77,.13-.88,.43Z"/><path class="cls-1" d="M1399.89,693.41c-.06,.26-.1,.52-.12,.78,.36,.04,.73-.07,1-.32,.27-.29,.28-.57,0-.81-.14-.06-.31-.06-.45,0-.18,.05-.34,.18-.43,.35Z"/><path class="cls-1" d="M1399.57,694.34h.18v-.13h-.2s0,.08,.02,.13h0Z"/><polygon class="cls-1" points="1509.94 875.52 1509.51 875.35 1509.48 875.65 1509.94 875.52"/><path class="cls-1" d="M1509.75,775.6c-.13,0-.33,0-.37,.08-.09,.1-.12,.25-.08,.38,.2,.36,.45,.33,.6-.09,.04-.11-.1-.25-.15-.37Z"/><path class="cls-1" d="M1510.61,780.87c-.23,.36-.07,.66,.44,.81,.09,0,.33-.2,.5-.31,.09-.34-.07-.63-.52-.82-.16,.07-.31,.18-.42,.32h0Z"/><path class="cls-1" d="M1521.66,872.81c-.28-.37-.68-.37-1.21-.1-.38,.15-.68,.44-.83,.82-.16,.34-.02,.75,.32,.92,.41,.11,.86,0,1.17-.29,.32-.21,.55-.52,.67-.88-.04-.16-.02-.3-.12-.47h0Z"/><polygon class="cls-1" points="1456.98 47.75 1457.38 47.79 1457.24 47.49 1456.98 47.75"/><path class="cls-1" d="M1539.99,83.05l.23-.07v-.12c-.08-.04-.18,0-.21,.08-.02,.03-.02,.07,0,.11h-.02Z"/><path class="cls-1" d="M1541.88,80.26c-.62-.19-1.29,.12-1.55,.71-.25,.6-.3,1.26-.12,1.89,.41,.03,.81-.1,1.12-.37,.15-.13,.28-.27,.39-.43,.19-.31,.32-.64,.52-1s.17-.62-.36-.8Z"/><path class="cls-1" d="M1539.56,83.41c.2-.02,.38-.16,.43-.36-.1,.01-.2,.04-.3,.08-.1,.05-.09,.18-.13,.28Z"/><path class="cls-1" d="M1629.61,716.5c.08,0,.41-.18,.49-.32,.19-.35,0-.64-.43-.84-.17,.11-.41,.2-.5,.34-.22,.36-.02,.67,.44,.82h0Z"/><path class="cls-1" d="M1660.6,723.19c-.15,.67-.27,1.34-.37,1.83,.02,.4,.07,.79,.15,1.18,.06,.19,.21,.34,.39,.42,.41,.14,.86,.07,1.21-.19,.8-.56,1.45-1.29,1.9-2.15,.43-.63,.08-1.3-.87-1.69s-2.27,.02-2.41,.6h0Z"/><path class="cls-1" d="M1616.37,774.98c.33-.08,.55-.39,.52-.73-.39-.07-.78,.1-1,.42-.03,.1,.43,.37,.48,.31Z"/><path class="cls-1" d="M1617.22,774.13h1.16c.61,0,1-.21,.86-.46s-.34-.22-.54-.24c-.24,0-.47,.03-.69,.11-.32,.1-.6,.31-.79,.59Z"/><path class="cls-1" d="M1616.89,774.29h.22c0-.06,.08-.1,.11-.15h-.32s-.02,.1-.01,.15Z"/><path class="cls-1" d="M1641,691.53c-.29,.24-.54,.53-.75,.84-.2,.33,0,.65,.32,.9,.79-.07,1.5-.53,1.88-1.23,.22-.36,.15-.69-.35-.87-.4-.07-.82,.06-1.1,.36h0Z"/><path class="cls-1" d="M1660.8,692.67l-.3,.14v.14h.27c0-.09,0-.19,.03-.28Z"/><path class="cls-1" d="M1659.99,694.17c.11-.12,.19-.28,.22-.44,.09-.26,.16-.52,.24-.78h-1.17c.09,.26,.16,.52,.22,.78,.1,.43,.29,.6,.49,.44h0Z"/><path class="cls-1" d="M1655.15,724.45c-.18,.32,0,.56,.42,.7,.16-.09,.42-.16,.47-.27,.15-.33,0-.6-.47-.72-.12-.02-.42,.17-.42,.29Z"/><polygon class="cls-1" points="1658.28 696.23 1658.21 696.59 1658.62 696.44 1658.28 696.23"/><path class="cls-1" d="M1390.18,491.7c.21-.02,.4-.13,.53-.3,.21-.35,0-.64-.47-.85-.19,.08-.36,.2-.52,.33-.33,.38-.17,.69,.46,.82Z"/><polygon class="cls-1" points="832.84 236.69 832.46 236.5 832.4 236.81 832.84 236.69"/><path class="cls-1" d="M766.96,214.24c-.18,.05-.34,.16-.45,.31-.18,.35,0,.64,.47,.77,.09,0,.32-.2,.48-.3,.14-.35,0-.64-.5-.78h0Z"/><path class="cls-1" d="M859.65,151.7c.07-.14,.11-.29,.12-.45,0-.06-.22-.1-.34-.16-.06,.14-.1,.29-.11,.45,0,.06,.21,.11,.33,.16Z"/><path class="cls-1" d="M1101.46,146.58l.38-.12c0-.16-.09-.31-.13-.46-.13,0-.36,.08-.36,.13,0,.16,.05,.31,.11,.45Z"/><path class="cls-1" d="M1123.61,166.26c0,.1,.22,.22,.34,.33,.15-.09,.41-.18,.42-.28s-.21-.22-.33-.33c-.15,.09-.41,.18-.43,.28Z"/><path class="cls-1" d="M823.09,215.89c.41,.61,.94,1.14,1.54,1.56,.72,.55,1.54,.94,2.42,1.15,.71,.19,1.45,.25,2.18,.16,.55-.06,1.07-.9,.78-1.25-.72-.83-1.71-1.38-2.8-1.54-1.36-.24-2.75-.27-4.12-.08Z"/><polygon class="cls-1" points="740.02 138.81 740.06 138.54 739.67 138.65 740.02 138.81"/><path class="cls-1" d="M701.84,594.97c.09,.78,.61,1.45,1.35,1.72,.62,.28,1.26,.54,1.93,.77,.84,.3,2.07-.26,2.12-.92,.18-1.17-.65-2-2-2.55-.9-.36-1.91-.31-2.77,.12-.47,.15-.67,.43-.63,.86h0Z"/><path class="cls-1" d="M1044.95,104.75c-.89,.56-.73,1.61,.36,2.07,.22,.08,.46,.11,.69,.08,1-.08,1.91-.63,2-1.17-.05-.35-.25-.67-.55-.86-.73-.56-1.72-.6-2.5-.12h0Z"/><path class="cls-1" d="M1107.47,152.82c.22,.03,.44,0,.65-.09,.08,0,0-.21,.06-.32-.2-.07-.42-.11-.63-.12-.21,.05-.41,.13-.59,.23,.15,.13,.32,.23,.51,.3h0Z"/><path class="cls-1" d="M448.78,1.84c.06,0,.37-.15,.38-.25s-.21-.19-.33-.29c-.55,.16-.58,.35-.05,.54h0Z"/><path class="cls-1" d="M444.14,.14c-.56-.23-1-.2-1.15,.22s.07,.63,.57,.79c.44,.16,.92,.06,1.27-.24,.04-.36-.23-.58-.69-.77Z"/><polygon class="cls-1" points="1519.85 830.31 1519.81 830.69 1520.3 830.52 1519.85 830.31"/><path class="cls-1" d="M1490.88,795.11c.5,.21,1.4-.17,1.47-.6s-.78-1-1.33-.83c-.36,.05-.66,.31-.74,.67-.02,.31,.17,.57,.6,.76Z"/><path class="cls-1" d="M1669.49,895.26c-.61,.09-1.15,.46-1.45,1-.22,.38,.44,.8,1.41,.78,1.42-.11,2.84,.18,4.1,.85,.39,.22,.79,.41,1.2,.58,.41,.17,.86,.31,1.29,.47,.89,.3,1.88,.16,2.65-.38,.38-.44,.62-.91,.21-1.4-.37-.44-.76-.86-1.17-1.26-.7-.57-1.56-.92-2.46-1-.71-.09-1.45-.1-2.19-.15-1,.11-1.94,.21-2.9,.33-.24,.05-.46,.13-.69,.18h0Z"/><polygon class="cls-1" points="1678.94 970.52 1678.51 970.35 1678.48 970.65 1678.94 970.52"/><path class="cls-1" d="M1678.75,870.6c-.13,0-.33,0-.37,.08-.09,.1-.12,.25-.08,.38,.2,.36,.45,.33,.6-.09,.04-.11-.1-.25-.15-.37Z"/><path class="cls-1" d="M1679.61,875.87c-.23,.36-.07,.66,.44,.81,.09,0,.33-.2,.5-.31,.09-.34-.07-.63-.52-.82-.16,.07-.31,.18-.42,.32h0Z"/><path class="cls-1" d="M1690.66,967.81c-.28-.37-.68-.37-1.21-.1-.38,.15-.68,.44-.83,.82-.16,.34-.02,.75,.32,.92,.41,.11,.86,0,1.17-.29,.32-.21,.55-.52,.67-.88-.04-.16-.02-.3-.12-.47h0Z"/><polygon class="cls-1" points="1688.85 925.31 1688.81 925.69 1689.3 925.52 1688.85 925.31"/><path class="cls-1" d="M1666.88,933.11c.5,.21,1.4-.17,1.47-.6s-.78-1-1.33-.83c-.36,.05-.66,.31-.74,.67-.02,.31,.17,.57,.6,.76Z"/><polygon class="cls-1" points="364.69 830.65 365.14 830.69 364.97 830.37 364.69 830.65"/><path class="cls-1" d="M408.04,876.57c-.38-.26-.82-.4-1.28-.42-.91-.04-1.81,.25-2.53,.81-.81,.7-.28,1.74,1,1.93,.23,0,.47,.05,.7,.07,.88-.05,1.72-.43,2.34-1.06,.42-.42,.32-.92-.23-1.33Z"/><path class="cls-1" d="M406.62,868.18c1.3-.24,2.52-.82,3.54-1.67,.3-.26,.65-.49,1-.74s.38-.59-.09-.8c-.41-.22-.89-.29-1.35-.21-2.72,.57-5.38,1.4-7.94,2.47-.35,.15-.61,.46-.69,.83-.13,.35,.08,.65,.67,.71,.71,.1,1.43,.12,2.15,.06,.91-.14,1.79-.46,2.71-.65Z"/><polygon class="cls-1" points="372.2 872.34 372.13 872.6 372.6 872.52 372.2 872.34"/><path class="cls-1" d="M391.91,873.26c-.16,.03-.29,.11-.39,.24,0,.09,.21,.2,.33,.3,.55-.15,.58-.35,.06-.54h0Z"/><path class="cls-1" d="M1530.47,888.78c-.16,.1-.4,.19-.48,.31-.19,.34,0,.64,.42,.8,.19-.05,.35-.16,.47-.31,.23-.33,.07-.6-.41-.8Z"/><path class="cls-1" d="M124.46,933.26c-.31-.49-.76-.89-1.29-1.14-.4-.25-.89-.3-1.34-.15-.72,.26-1.11,.77-.93,1.17,.07,.16,.16,.32,.28,.45,.47,.45,1.06,.74,1.7,.85,.44,.07,.89-.04,1.25-.3,.34-.25,.51-.53,.33-.88h0Z"/><path class="cls-1" d="M1396.86,703.35l-.32,.07c-.02,.07-.05,.15-.09,.21l.3-.07c.02-.08,.06-.15,.11-.21h0Z"/><path class="cls-1" d="M1397.38,702.98c-.23-.02-.44,.12-.52,.33,.11,0,.21-.02,.31-.06,.11,0,.14-.14,.21-.27Z"/><path class="cls-1" d="M155.27,709.36h-.41v.14h.14c.09-.05,.18-.1,.27-.14Z"/><path class="cls-1" d="M1409.98,707.59h.16s.07-.07,.09-.11h-.26s0,.07,.01,.11Z"/><path class="cls-1" d="M1404.58,707.77c0,.85-.05,1.69-.06,2.54,0,.42,.22,.69,.59,.69,.24-.01,.47-.08,.67-.2,1.55-.67,2.95-1.63,4.13-2.84,.08-.11,.1-.24,.07-.37-1.14,.04-2.27-.17-3.32-.63-1.02-.35-2.04,.02-2.08,.81h0Z"/><path class="cls-1" d="M1411.94,707.55c.19-.05,.37-.14,.52-.27,.09-.08,.16-.23,.11-.31-.21-.35-.59-.43-1.12-.3-.51,.08-.95,.38-1.22,.82,.35,0,.7,.1,1,.13,.24,.02,.48,0,.71-.07Z"/><path class="cls-1" d="M1420.91,701.16l-.44,.26c0,.1-.15,.14-.21,.22,.13-.05,.27-.08,.41-.09l.24-.39h0Z"/><path class="cls-1" d="M1396.17,703.69c-.1,0-.13,.17-.2,.25,.23,.05,.45-.09,.52-.31-.11,0-.22,.03-.32,.06h0Z"/><path class="cls-1" d="M1418.87,702.57h-.48c-.9,.02-1.77,.37-2.42,1-.27,.29-.59,.55-.86,.83-.15,.13-.27,.28-.36,.45-.14,.33-.04,.71,.24,.93,.36,.28,.87,.28,1.23,0,1.35-.58,2.34-1.77,2.65-3.21Z"/><path class="cls-1" d="M1420.26,701.64c-.35,.1-.66,.3-.89,.58,.35-.1,.65-.31,.89-.58Z"/><path class="cls-1" d="M1419.37,702.22c-.15,.07-.3,.13-.46,.18v.17h.26l.2-.35Z"/><path class="cls-1" d="M275.02,783.26c-.12-.05-.24-.08-.37-.1,.2,.31,.37,.36,.37,.1Z"/><path class="cls-1" d="M273.47,782.75c.16,.26,.56,.31,1,.25,.11-.3,0-.55-.4-.62s-.77,.12-.6,.37Z"/><path class="cls-1" d="M237.59,780.21c-.42-.19-.86-.33-1.32-.39-2-.09-4.26,.72-4.87,1.85-.19,.36,.34,1.12,.93,1.21s1,.11,1.43,.16c1.41,.04,2.8-.33,4-1.07,.46-.3,.59-.92,.28-1.39-.11-.17-.27-.3-.45-.37h0Z"/><path class="cls-1" d="M274.45,783.1l.23,.06-.08-.16h-.14v.1h-.01Z"/><path class="cls-1" d="M995.08,455.66c.21,1.2,1.6,2.15,3.38,2.33,1.31,.12,2.45-.58,2.37-1.44-.11-1.28-1.59-2.52-3.83-2.55-1,0-2,.52-1.93,1.34-.01,.11,0,.21,.01,.32Z"/><path class="cls-1" d="M992.2,329c.21,1.2,1.6,2.15,3.38,2.33,1.31,.12,2.45-.58,2.37-1.44-.11-1.28-1.59-2.52-3.83-2.55-1,0-2,.52-1.93,1.34-.01,.11,0,.21,.01,.32Z"/><path class="cls-1" d="M925.63,504.72c.21,1.2,1.6,2.15,3.38,2.33,1.31,.12,2.45-.58,2.37-1.44-.11-1.28-1.59-2.52-3.83-2.55-1,0-2,.52-1.93,1.34-.01,.11,0,.21,.01,.32Z"/><polygon class="cls-1" points="905 516.94 905.39 517.14 905.46 516.82 905 516.94"/><path class="cls-1" d="M911.2,436.19c.17-.05,.27-.21,.4-.32-.08-.17-.19-.32-.32-.45-.99-.66-2.19-.9-3.35-.67-.65,.09-.85,.35-.55,.69,1.03,.94,2.51,1.23,3.82,.75h0Z"/><path class="cls-1" d="M909.46,668.43c-.22,.02-.44,.06-.65,.13l.15,.3c.22,.06,.44,.08,.67,.08,.16,0,.27-.19,.4-.29-.18-.1-.37-.17-.57-.22h0Z"/><polygon class="cls-1" points="768.1 656.53 768.14 656.23 767.67 656.35 768.1 656.53"/><path class="cls-1" d="M741.42,553.18c.07,.1,.42,.11,.64,.16l.62-.25c-.16-.14-.35-.24-.55-.31-.65-.09-.94,.08-.71,.4Z"/><path class="cls-1" d="M1284.05,656.62c.21,.04,.42,.07,.63,.09,.06,0,.13-.16,.19-.24-.21-.05-.42-.09-.63-.11-.06-.03-.13,.17-.19,.26h0Z"/><path class="cls-1" d="M948.19,601.42c-.11,0-.2,.26-.19,.39s.15,.26,.24,.39c.13-.07,.36-.14,.38-.23,.11-.4-.07-.62-.43-.55h0Z"/><path class="cls-1" d="M945.61,608.12l-.55,.32c.17,.12,.3,.3,.51,.36,.24,.06,.48,.06,.72,0,.75-.18,.78-.44,.08-.67-.25-.04-.51-.04-.76-.01Z"/><path class="cls-1" d="M812.75,578.83c-.21-1.2-1.61-2.15-3.38-2.33-1.31-.13-2.45,.57-2.37,1.44,.11,1.28,1.58,2.52,3.83,2.55,1,0,2-.52,1.92-1.34,.02-.11,.02-.21,0-.32h0Z"/><path class="cls-1" d="M707.42,709.85c-.21-1.2-1.61-2.15-3.38-2.33-1.31-.13-2.45,.57-2.37,1.44,.11,1.28,1.58,2.52,3.83,2.55,1,0,2-.52,1.92-1.34,.02-.11,.02-.21,0-.32h0Z"/><path class="cls-1" d="M773.9,356.91c-.21-1.2-1.61-2.15-3.38-2.33-1.31-.13-2.45,.57-2.37,1.44,.11,1.28,1.58,2.52,3.83,2.55,1,0,2-.52,1.92-1.34,.02-.11,.02-.21,0-.32h0Z"/><path class="cls-1" d="M943.95,618.76c.19,.09,.39,.14,.6,.16,.46-.01,.9-.17,1.26-.45,.36-.35,.38-.92,.03-1.29-.03-.03-.06-.06-.09-.08-.53-.46-1.31-.49-1.87-.07-.8,.51-.8,1.19,.07,1.73h0Z"/><path class="cls-1" d="M883.84,745.97c.09,.78,.61,1.45,1.35,1.72,.62,.28,1.26,.54,1.93,.77,.84,.3,2.07-.26,2.12-.92,.18-1.17-.65-2-2-2.55-.9-.36-1.91-.31-2.77,.12-.47,.15-.67,.43-.63,.86h0Z"/><path class="cls-1" d="M920.15,783.54c-.19,.03-.36,.13-.48,.28-.21,.33,0,.62,.44,.76,.08,0,.31-.17,.48-.27,.14-.34,.01-.63-.44-.77Z"/><polygon class="cls-1" points="901.04 740.83 900.98 741.09 901.39 741 901.04 740.83"/><path class="cls-1" d="M900.68,781.33c-.04,.16,0,.33,.11,.45,0,.05,.3,0,.47,.05,.06-.15,.19-.3,.16-.43s-.2-.29-.31-.43c-.15,.12-.37,.22-.43,.36h0Z"/><polygon class="cls-1" points="913.26 775.94 913.1 775.56 912.81 775.9 913.26 775.94"/><polygon class="cls-1" points="1188 691.94 1188.39 692.14 1188.46 691.82 1188 691.94"/><path class="cls-1" d="M1164.01,692.15c.17-.05,.27-.21,.4-.32-.08-.17-.19-.32-.32-.45-.99-.66-2.19-.9-3.35-.67-.65,.09-.85,.35-.55,.69,1.03,.94,2.51,1.23,3.82,.75Z"/><path class="cls-1" d="M1091.46,819.43c-.22,.02-.44,.06-.65,.13l.15,.3c.22,.06,.44,.08,.67,.08,.16,0,.27-.19,.4-.29-.18-.1-.37-.17-.57-.22h0Z"/><path class="cls-1" d="M923.42,704.18c.07,.1,.42,.11,.64,.16l.62-.25c-.16-.14-.35-.24-.55-.31-.65-.09-.94,.08-.71,.4Z"/><path class="cls-1" d="M1040.34,760.68c-.21-1.2-1.61-2.15-3.38-2.33-1.31-.13-2.45,.57-2.37,1.44,.11,1.28,1.58,2.52,3.83,2.55,1,0,2-.52,1.92-1.34,.02-.11,.02-.21,0-.32h0Z"/><path class="cls-1" d="M1165.1,812.33c-.21-1.2-1.61-2.15-3.38-2.33-1.31-.13-2.45,.57-2.37,1.44,.11,1.28,1.58,2.52,3.83,2.55,1,0,2-.52,1.92-1.34,.02-.11,.02-.21,0-.32h0Z"/><path class="cls-1" d="M941.34,744.68c-.21-1.2-1.61-2.15-3.38-2.33-1.31-.13-2.45,.57-2.37,1.44,.11,1.28,1.58,2.52,3.83,2.55,1,0,2-.52,1.92-1.34,.02-.11,.02-.21,0-.32h0Z"/><path class="cls-1" d="M427.42,344.37c.07,.1,.42,.11,.64,.16l.62-.25c-.16-.14-.35-.24-.55-.31-.65-.09-.94,.08-.71,.4h0Z"/><path class="cls-1" d="M426.7,329.23c.08,.01,.16,.01,.24,0,.12,0,.19-.15,.28-.23-.2-.04-.41,.05-.52,.23Z"/><path class="cls-1" d="M120.44,202.39c.18-.06,.33-.2,.4-.37,.15-.33,0-.63-.53-.77-.43-.11-.89,0-1.23,.29-.15,.35,.82,.98,1.36,.85Z"/><polygon class="cls-1" points="125.1 195.53 125.14 195.23 124.67 195.35 125.1 195.53"/><path class="cls-1" d="M586,579.26c.21,1.2,1.6,2.15,3.38,2.33,1.31,.12,2.45-.58,2.37-1.44-.11-1.28-1.59-2.52-3.83-2.55-1,0-2,.52-1.93,1.34-.01,.11,0,.21,.01,.32h0Z"/><path class="cls-1" d="M634.46,645.43c-.22,.02-.44,.06-.65,.13l.15,.3c.22,.06,.44,.08,.67,.08,.16,0,.27-.19,.4-.29-.18-.1-.37-.17-.57-.22h0Z"/><path class="cls-1" d="M673.19,578.42c-.11,0-.2,.26-.19,.39s.15,.26,.24,.39c.13-.07,.36-.14,.38-.23,.11-.4-.07-.62-.43-.55h0Z"/><path class="cls-1" d="M574.84,432.97c.09,.78,.61,1.45,1.35,1.72,.62,.28,1.26,.54,1.93,.77,.84,.3,2.07-.26,2.12-.92,.18-1.17-.65-2-2-2.55-.9-.36-1.91-.31-2.77,.12-.47,.15-.67,.43-.63,.86h0Z"/><path class="cls-1" d="M638.75,426.69c-.21-1.2-1.61-2.15-3.38-2.33-1.31-.13-2.45,.57-2.37,1.44,.11,1.28,1.58,2.52,3.83,2.55,1,0,2-.52,1.92-1.34,.02-.11,.02-.21,0-.32Z"/><path class="cls-1" d="M546.19,416.42c-.11,0-.2,.26-.19,.39s.15,.26,.24,.39c.13-.07,.36-.14,.38-.23,.11-.4-.07-.62-.43-.55h0Z"/><path class="cls-1" d="M655.7,479.23c-.07,.14-.11,.29-.12,.45,0,0,.22,.1,.34,.15,.06-.14,.1-.3,.11-.45l-.33-.15Z"/><path class="cls-1" d="M1090.84,198.97c.09,.78,.61,1.45,1.35,1.72,.62,.28,1.26,.54,1.93,.77,.84,.3,2.07-.26,2.12-.92,.18-1.17-.65-2-2-2.55-.9-.36-1.91-.31-2.77,.12-.47,.15-.67,.43-.63,.86Z"/><polygon class="cls-1" points="1108.04 193.83 1107.98 194.09 1108.39 194 1108.04 193.83"/><path class="cls-1" d="M1107.68,234.33c-.04,.16,0,.33,.11,.45,0,.05,.3,0,.47,.05,.06-.15,.19-.3,.16-.43s-.2-.29-.31-.43c-.15,.12-.37,.22-.43,.36h0Z"/><polygon class="cls-1" points="1088.95 177.72 1088.6 177.53 1088.53 177.83 1088.95 177.72"/><polygon class="cls-1" points="1087.36 289.99 1086.99 290.08 1087.3 290.24 1087.36 289.99"/><path class="cls-1" d="M1449.01,183.14c.17-.05,.27-.21,.4-.32-.08-.17-.19-.32-.32-.45-.99-.66-2.19-.9-3.35-.67-.65,.09-.85,.35-.55,.69,1.03,.94,2.51,1.23,3.82,.75Z"/><path class="cls-1" d="M1448.64,168.24c.07,.44,.87,.79,1.46,.61s.71-.42,.64-.71c-.25-.54-.87-.82-1.44-.65-.45,.16-.66,.42-.66,.75Z"/><path class="cls-1" d="M1425.13,172.37c-.02,.15,.04,.3,.15,.4,0,.06,.26,.05,.4,.07s.13-.27,.11-.39c-.07-.14-.17-.27-.28-.38-.16,.1-.38,.19-.38,.3Z"/><path class="cls-1" d="M1260,187.26c.21,1.2,1.6,2.15,3.38,2.33,1.31,.12,2.45-.58,2.37-1.44-.11-1.28-1.59-2.52-3.83-2.55-1,0-2,.52-1.93,1.34-.01,.11,0,.21,.01,.32Z"/><path class="cls-1" d="M1380.25,106.57c.21,1.2,1.6,2.15,3.38,2.33,1.31,.12,2.45-.58,2.37-1.44-.11-1.28-1.59-2.52-3.83-2.55-1,0-2,.52-1.93,1.34-.01,.11,0,.21,.01,.32Z"/><polygon class="cls-1" points="1284 225.94 1284.39 226.14 1284.46 225.82 1284 225.94"/><path class="cls-1" d="M1260.01,226.15c.17-.05,.27-.21,.4-.32-.08-.17-.19-.32-.32-.45-.99-.66-2.19-.9-3.35-.67-.65,.09-.85,.35-.55,.69,1.03,.94,2.51,1.23,3.82,.75Z"/><path class="cls-1" d="M1251.46,390.43c-.22,.02-.44,.06-.65,.13l.15,.3c.22,.06,.44,.08,.67,.08,.16,0,.27-.19,.4-.29-.18-.1-.37-.17-.57-.22h0Z"/><polygon class="cls-1" points="1157.1 260.53 1157.14 260.23 1156.67 260.35 1157.1 260.53"/><path class="cls-1" d="M1130.42,157.18c.07,.1,.42,.11,.64,.16l.62-.25c-.16-.14-.35-.24-.55-.31-.65-.09-.94,.08-.71,.4Z"/><path class="cls-1" d="M1290.19,323.42c-.11,0-.2,.26-.19,.39s.15,.26,.24,.39c.13-.07,.36-.14,.38-.23,.11-.4-.07-.62-.43-.55h0Z"/><path class="cls-1" d="M1287.61,330.12l-.55,.32c.17,.12,.3,.3,.51,.36,.24,.06,.48,.06,.72,0,.75-.18,.78-.44,.08-.67-.25-.04-.51-.04-.76-.01h0Z"/><path class="cls-1" d="M1200.34,331.68c-.21-1.2-1.61-2.15-3.38-2.33-1.31-.13-2.45,.57-2.37,1.44,.11,1.28,1.58,2.52,3.83,2.55,1,0,2-.52,1.92-1.34,.02-.11,.02-.21,0-.32Z"/><path class="cls-1" d="M1148.34,197.68c-.21-1.2-1.61-2.15-3.38-2.33-1.31-.13-2.45,.57-2.37,1.44,.11,1.28,1.58,2.52,3.83,2.55,1,0,2-.52,1.92-1.34,.02-.11,.02-.21,0-.32Z"/><path class="cls-1" d="M666.75,79.97c-.21-1.2-1.61-2.15-3.38-2.33-1.31-.13-2.45,.57-2.37,1.44,.11,1.28,1.58,2.52,3.83,2.55,1,0,2-.52,1.92-1.34,.02-.11,.02-.21,0-.32Z"/><path class="cls-1" d="M1285.95,340.76c.19,.09,.39,.14,.6,.16,.46-.01,.9-.17,1.26-.45,.36-.35,.38-.92,.03-1.29-.03-.03-.06-.06-.09-.08-.53-.46-1.31-.49-1.87-.07-.8,.51-.8,1.19,.07,1.73Z"/><path class="cls-1" d="M1225.84,467.97c.09,.78,.61,1.45,1.35,1.72,.62,.28,1.26,.54,1.93,.77,.84,.3,2.07-.26,2.12-.92,.18-1.17-.65-2-2-2.55-.9-.36-1.91-.31-2.77,.12-.47,.15-.67,.43-.63,.86h0Z"/><polygon class="cls-1" points="1243.04 462.83 1242.98 463.09 1243.39 463 1243.04 462.83"/><path class="cls-1" d="M1265.42,426.18c.07,.1,.42,.11,.64,.16l.62-.25c-.16-.14-.35-.24-.55-.31-.65-.09-.94,.08-.71,.4Z"/><path class="cls-1" d="M1283.34,466.68c-.21-1.2-1.61-2.15-3.38-2.33-1.31-.13-2.45,.57-2.37,1.44,.11,1.28,1.58,2.52,3.83,2.55,1,0,2-.52,1.92-1.34,.02-.11,.02-.21,0-.32Z"/><path class="cls-1" d="M1013.46,354.43c-.22,.02-.44,.06-.65,.13l.15,.3c.22,.06,.44,.08,.67,.08,.16,0,.27-.19,.4-.29-.18-.1-.37-.17-.57-.22h0Z"/><path class="cls-1" d="M1062.19,182.42c-.11,0-.2,.26-.19,.39s.15,.26,.24,.39c.13-.07,.36-.14,.38-.23,.11-.4-.07-.62-.43-.55Z"/><path class="cls-1" d="M1034.7,188.23c-.07,.14-.11,.29-.12,.45,0,0,.22,.1,.34,.15,.06-.14,.1-.3,.11-.45l-.33-.15Z"/><path class="cls-1" d="M432.32,492.71v.15h.18v-.12c-.06,0-.12-.01-.18-.03Z"/><path class="cls-1" d="M413.89,484.34l-.38,.13,.12,.46c.13,0,.36-.08,.37-.13-.01-.16-.05-.31-.11-.46Z"/><path class="cls-1" d="M449.74,462.84c-.13-.18-.32-.3-.54-.34-.97-.17-1.96-.14-2.92,.09-.59,.14-.86,.38-.7,.6,.14,.16,.34,.28,.55,.32,.47,.09,1,.11,1.46,.16,.49-.02,.97-.08,1.45-.18,.54-.14,.81-.41,.7-.65h0Z"/><path class="cls-1" d="M366.84,151.97c.09,.78,.61,1.45,1.35,1.72,.62,.28,1.26,.54,1.93,.77,.84,.3,2.07-.26,2.12-.92,.18-1.17-.65-2-2-2.55-.9-.36-1.91-.31-2.77,.12-.47,.15-.67,.43-.63,.86Z"/><path class="cls-1" d="M173.05,221.71c.03-.05,.02-.47-.08-.54s-.33,.12-.5,.19c-.11,.66,.1,.78,.58,.35h0Z"/><path class="cls-1" d="M403.15,189.54c-.19,.03-.36,.13-.48,.28-.21,.33,0,.62,.44,.76,.08,0,.31-.17,.48-.27,.14-.34,.01-.63-.44-.77h0Z"/><path class="cls-1" d="M148.16,212.36c-.49,.35-.6,.7-.29,1.05,.1,.13,.25,.22,.42,.22,.44-.09,.78-.44,.88-.87,0-.21,.08-.54,0-.61-.29-.2-.63-.07-1,.21h-.01Z"/><polygon class="cls-1" points="384.04 146.83 383.98 147.09 384.39 147 384.04 146.83"/><path class="cls-1" d="M383.68,187.33c-.04,.16,0,.33,.11,.45,0,.05,.3,0,.47,.05,.06-.15,.19-.3,.16-.43s-.2-.29-.31-.43c-.15,.12-.37,.22-.43,.36h0Z"/><polygon class="cls-1" points="364.95 130.72 364.6 130.53 364.53 130.83 364.95 130.72"/><polygon class="cls-1" points="396.26 181.94 396.1 181.56 395.81 181.9 396.26 181.94"/><path class="cls-1" d="M178.04,226.69c-.19,.04-.37,.12-.53,.23-.14,.16-.27,.33-.36,.52-.07,.21-.12,.43-.16,.65-.09,.93,.21,1.32,.79,.95,.59-.27,1.02-.78,1.2-1.4,.11-.41-.12-.83-.53-.95-.13-.04-.27-.04-.4,0h0Z"/><polygon class="cls-1" points="170.1 266.85 170.01 267.22 170.29 267.02 170.1 266.85"/><path class="cls-1" d="M692.72,297.76c.4,.2,.88,.07,1.12-.3,0-.07-.23-.31-.41-.35-.42-.1-.86,.02-1.18,.32,.14,.14,.3,.25,.47,.33Z"/><path class="cls-1" d="M695.83,309.28c-.43-.1-.86-.17-1.3-.22-.67,0-1.32,.22-1.85,.62-.34,.23-.61,.53-.5,.85s.56,.46,1,.52c1.08,.18,2.17-.19,2.91-1,.36-.33,.31-.6-.26-.77Z"/><path class="cls-1" d="M482.4,339.7c.02,.16,.05,.31,.11,.46,.18,.35,.57,.47,1.12,.32s.7-.41,.5-.76c-.18-.36-.55-.59-.95-.61-.37-.03-.71,.22-.78,.59h0Z"/><path class="cls-1" d="M442.58,330.06c-.09,.14-.25,.27-.27,.42s.07,.31,.11,.46c.11-.14,.27-.27,.3-.41s-.09-.31-.14-.47h0Z"/><path class="cls-1" d="M638.88,345.51c.22-.02,.44-.06,.65-.13l-.15-.3c-.22-.05-.45-.08-.68-.08-.15,0-.26,.19-.39,.28,.18,.11,.37,.18,.57,.23h0Z"/><path class="cls-1" d="M575.16,781.87c.2-1.84,.4-3.69,.5-5.54,.04-1.05,.33-2.07,.82-3,.44-.75,.58-1.64,.41-2.49-.08-.18-.21-.33-.38-.42-.39-.22-.86-.22-1.25,0-.53,.22-.91,.71-1,1.28-.1,1.68-.12,3.37-.19,6,0,.75,.13,2.43,.24,4.11,.03,.18,.13,.34,.27,.46,.17,.23,.5,.08,.58-.4h0Z"/><polygon class="cls-1" points="514.12 256.41 514.54 256.45 514.38 256.11 514.12 256.41"/><path class="cls-1" d="M474.22,295.43s-.26,0-.4-.06c-.12,.13-.22,.27-.3,.43-.17,.5,0,1.06,.4,1.4,.17-.12,.4-.22,.48-.36,.27-.46,.19-1.04-.18-1.41h0Z"/><path class="cls-1" d="M452.62,297.58c0,.52,.35,.62,.6,.28,.11-.14,.19-.3,.24-.47,.22-.85,1.12-1.49,1.5-2.28,.54-1.12,1.1-2.23,1.6-3.35,.11-.32,.14-.66,.1-1,0-.37-.29-.67-.65-.7-.15,0-.38,.19-.53,.33-1.21,1.1-1.5,2.46-2.18,3.72-.55,1.07-.79,2.27-.68,3.47h0Z"/><path class="cls-1" d="M451.46,300.52c-.06,.14-.1,.28-.12,.43,0,0,.19,.09,.29,.14,.06-.14,.09-.28,.11-.43l-.28-.14Z"/><path class="cls-1" d="M452.25,329.45c-.01-.36-.25-.67-.59-.79-1.01-.51-2.23-.39-3.11,.32-.37,.27-.3,.56,.2,.8,.4,.18,.82,.33,1.24,.44,.86,.21,2.18-.24,2.26-.77h0Z"/><path class="cls-1" d="M480.48,325.27c.21,.04,.42,.07,.63,.09,.06,0,.13-.16,.19-.24-.21-.05-.42-.09-.63-.11-.06-.03-.13,.17-.19,.26h0Z"/><path class="cls-1" d="M439.5,296.87c-.69-.38-1.39-.3-1.68,.22s-.07,.67,.43,.86c.2,.08,.41,.13,.63,.16,.45,.1,.91-.06,1.21-.4,.16-.32-.19-.62-.59-.84Z"/><path class="cls-1" d="M215.42,559.37c.07,.1,.42,.11,.64,.16l.62-.25c-.16-.14-.35-.24-.55-.31-.65-.09-.94,.08-.71,.4h0Z"/><path class="cls-1" d="M214.7,544.23c.08,.01,.16,.01,.24,0,.12,0,.19-.15,.28-.23-.2-.04-.41,.05-.52,.23Z"/><path class="cls-1" d="M109.74,769.84c-.13-.18-.32-.3-.54-.34-.97-.17-1.96-.14-2.92,.09-.59,.14-.86,.38-.7,.6,.14,.16,.34,.28,.55,.32,.47,.09,1,.11,1.46,.16,.49-.02,.97-.08,1.45-.18,.54-.14,.81-.41,.7-.65h0Z"/><path class="cls-1" d="M230.58,545.06c-.09,.14-.25,.27-.27,.42s.07,.31,.11,.46c.11-.14,.27-.27,.3-.41s-.09-.31-.14-.47h0Z"/><path class="cls-1" d="M261.88,594.51c.22-.02,.44-.06,.65-.13l-.15-.3c-.22-.05-.45-.08-.68-.08-.15,0-.26,.19-.39,.28,.18,.11,.37,.18,.57,.23Z"/><path class="cls-1" d="M228.02,560.5c.2-1.84,.4-3.69,.5-5.54,.04-1.05,.33-2.07,.82-3,.44-.75,.58-1.64,.41-2.49-.08-.18-.21-.33-.38-.42-.39-.22-.86-.22-1.25,0-.53,.22-.91,.71-1,1.28-.1,1.68-.12,3.37-.19,6,0,.75,.13,2.43,.24,4.11,.03,.18,.13,.34,.27,.46,.17,.23,.5,.08,.58-.4h0Z"/><path class="cls-1" d="M342.5,510.62c.2-1.84,.4-3.69,.5-5.54,.04-1.05,.33-2.07,.82-3,.44-.75,.58-1.64,.41-2.49-.08-.18-.21-.33-.38-.42-.39-.22-.86-.22-1.25,0-.53,.22-.91,.71-1,1.28-.1,1.68-.12,3.37-.19,6,0,.75,.13,2.43,.24,4.11,.03,.18,.13,.34,.27,.46,.17,.23,.5,.08,.58-.4h0Z"/><path class="cls-1" d="M262.22,510.43s-.26,0-.4-.06c-.12,.13-.22,.27-.3,.43-.17,.5,0,1.06,.4,1.4,.17-.12,.4-.22,.48-.36,.27-.46,.19-1.04-.18-1.41h0Z"/><path class="cls-1" d="M251.43,376.47c0,.52,.35,.62,.6,.28,.11-.14,.19-.3,.24-.47,.22-.85,1.12-1.49,1.5-2.28,.54-1.12,1.1-2.23,1.6-3.35,.11-.32,.14-.66,.1-1,0-.37-.29-.67-.65-.7-.15,0-.38,.19-.53,.33-1.21,1.1-1.5,2.46-2.18,3.72-.55,1.07-.79,2.27-.68,3.47h0Z"/><path class="cls-1" d="M239.46,515.52c-.06,.14-.1,.28-.12,.43,0,0,.19,.09,.29,.14,.06-.14,.09-.28,.11-.43l-.28-.14Z"/><path class="cls-1" d="M224.32,585.82c-.23-.04-.46-.04-.68,0-1.09,.44-1.35,1.2-.72,2,.46,.48,1.22,.5,1.7,.05,.52-.41,.6-1.17,.19-1.69-.13-.16-.3-.29-.49-.36Z"/><path class="cls-1" d="M240.25,544.45c0-.36-.25-.67-.59-.79-1.01-.51-2.23-.39-3.11,.32-.37,.27-.3,.56,.2,.8,.4,.18,.82,.33,1.24,.44,.86,.21,2.18-.24,2.26-.77Z"/><path class="cls-1" d="M252.32,594.05c-.18,0-.47,.23-.44,.27,.26,.32,.69,.45,1.08,.33,.17-.07,.33-.16,.48-.27-.28-.32-.71-.45-1.12-.33Z"/><path class="cls-1" d="M227.5,511.87c-.69-.38-1.39-.3-1.68,.22s-.07,.67,.43,.86c.2,.08,.41,.13,.63,.16,.45,.1,.91-.06,1.21-.4,.16-.32-.19-.62-.59-.84h0Z"/><path class="cls-1" d="M441.76,262.58c.07-.16,.04-.35-.07-.48-.32-.35-.81-.5-1.27-.4-.23,0-.59,.16-.6,.26-.05,.35,.25,.63,.73,.82s.96,.2,1.21-.2Z"/><path class="cls-1" d="M598.46,187.43c-.22,.02-.44,.06-.65,.13l.15,.3c.22,.06,.44,.08,.67,.08,.16,0,.27-.19,.4-.29-.18-.1-.37-.17-.57-.22h0Z"/><polygon class="cls-1" points="176.44 191.4 176.19 191.23 176.08 191.7 176.44 191.4"/><path class="cls-1" d="M199.42,170.18c.07,.1,.42,.11,.64,.16l.62-.25c-.16-.14-.35-.24-.55-.31-.65-.09-.94,.08-.71,.4h0Z"/><path class="cls-1" d="M637.19,120.42c-.11,0-.2,.26-.19,.39s.15,.26,.24,.39c.13-.07,.36-.14,.38-.23,.11-.4-.07-.62-.43-.55Z"/><path class="cls-1" d="M634.61,127.12l-.55,.32c.17,.12,.3,.3,.51,.36,.24,.06,.48,.06,.72,0,.75-.18,.78-.44,.08-.67-.25-.04-.51-.04-.76-.01Z"/><path class="cls-1" d="M435.37,635.14c-.21-1.2-1.61-2.15-3.38-2.33-1.31-.13-2.45,.57-2.37,1.44,.11,1.28,1.58,2.52,3.83,2.55,1,0,2-.52,1.92-1.34,.02-.11,.02-.21,0-.32Z"/><path class="cls-1" d="M424.34,150.68c-.21-1.2-1.61-2.15-3.38-2.33-1.31-.13-2.45,.57-2.37,1.44,.11,1.28,1.58,2.52,3.83,2.55,1,0,2-.52,1.92-1.34,.02-.11,.02-.21,0-.32Z"/><path class="cls-1" d="M83.68,349.69c.73,.29,1.57,.13,2.15-.4,.54-.42,1.06-.86,1.58-1.35,.66-.6,.73-1.95,.17-2.3-.95-.7-2.07-.35-3.19,.59-.73,.63-1.16,1.54-1.18,2.51-.09,.49,.07,.79,.47,.96h0Z"/><path class="cls-1" d="M133.81,335c-.07,.18-.06,.38,.02,.56,.19,.34,.55,.29,.88-.04,.04-.07,0-.35-.02-.55-.24-.28-.55-.3-.89,.03h0Z"/><polygon class="cls-1" points="87.11 332.07 87.32 332.24 87.43 331.83 87.11 332.07"/><path class="cls-1" d="M122.81,351.21c.12,.11,.29,.15,.45,.11,.04,.02,.14-.27,.26-.39-.1-.12-.18-.31-.31-.34s-.35,.04-.52,.07c.04,.19,.02,.43,.12,.55h0Z"/><polygon class="cls-1" points="63.98 341.48 63.64 341.7 63.88 341.9 63.98 341.48"/><polygon class="cls-1" points="123.88 337.57 123.47 337.53 123.64 337.95 123.88 337.57"/><path class="cls-1" d="M169.44,217.96c-1.16-.37-2.65,.43-3.63,1.91-.72,1.1-.63,2.43,.17,2.77,1.18,.5,2.97-.23,4.04-2.21,.46-.89,.47-2.01-.29-2.32-.09-.06-.18-.11-.28-.15h0Z"/><path class="cls-1" d="M109.26,298.17c-1.16-.37-2.65,.43-3.63,1.91-.72,1.1-.63,2.43,.17,2.77,1.18,.5,2.97-.23,4.04-2.21,.46-.89,.47-2.01-.29-2.32-.09-.06-.18-.11-.28-.15h-.01Z"/><path class="cls-1" d="M632.95,137.76c.19,.09,.39,.14,.6,.16,.46,0,.9-.17,1.26-.45,.36-.35,.38-.92,.03-1.29-.03-.03-.06-.06-.09-.08-.53-.46-1.31-.49-1.87-.07-.8,.51-.8,1.19,.07,1.73Z"/><path class="cls-1" d="M275,98.26c.21,1.2,1.6,2.15,3.38,2.33,1.31,.12,2.45-.58,2.37-1.44-.11-1.28-1.59-2.52-3.83-2.55-1,0-2,.52-1.93,1.34-.01,.11,0,.21,.01,.32h0Z"/><path class="cls-1" d="M104.49,304.57c-.09,.2-.15,.42-.19,.64h.34c.15-.16,.28-.35,.38-.55,.07-.14-.04-.33-.07-.49-.17,.11-.32,.25-.46,.4h0Z"/><path class="cls-1" d="M131.19,195.42c-.11,0-.2,.26-.19,.39s.15,.26,.24,.39c.13-.07,.36-.14,.38-.23,.11-.4-.07-.62-.43-.55h0Z"/><polygon class="cls-1" points="1298.04 447.83 1297.98 448.09 1298.39 448 1298.04 447.83"/><polygon class="cls-1" points="1278.95 431.72 1278.6 431.53 1278.53 431.83 1278.95 431.72"/><path class="cls-1" d="M1426.42,578.29l-.14,.05v.14h.19l-.05-.19h0Z"/><path class="cls-1" d="M1401.42,493.18c.07,.1,.42,.11,.64,.16l.62-.25c-.16-.14-.35-.24-.55-.31-.65-.09-.94,.08-.71,.4Z"/><path class="cls-1" d="M1419.34,533.68c-.21-1.2-1.61-2.15-3.38-2.33-1.31-.13-2.45,.57-2.37,1.44,.11,1.28,1.58,2.52,3.83,2.55,1,0,2-.52,1.92-1.34,.02-.11,.02-.21,0-.32h0Z"/><path class="cls-1" d="M1625.16,597.89c-.21-1.2-1.61-2.15-3.38-2.33-1.31-.13-2.45,.57-2.37,1.44,.11,1.28,1.58,2.52,3.83,2.55,1,0,2-.52,1.92-1.34,.02-.11,.02-.21,0-.32h0Z"/><polygon class="cls-1" points="1434.04 514.83 1433.98 515.09 1434.39 515 1434.04 514.83"/><polygon class="cls-1" points="1414.95 498.72 1414.6 498.53 1414.53 498.83 1414.95 498.72"/><path class="cls-1" d="M1497,323.26c.21,1.2,1.6,2.15,3.38,2.33,1.31,.12,2.45-.58,2.37-1.44-.11-1.28-1.59-2.52-3.83-2.55-1,0-2,.52-1.93,1.34-.01,.11,0,.21,.01,.32Z"/><path class="cls-1" d="M1584.08,236.47c.21,1.2,1.6,2.15,3.38,2.33,1.31,.12,2.45-.58,2.37-1.44-.11-1.28-1.59-2.52-3.83-2.55-1,0-2,.52-1.93,1.34-.01,.11,0,.21,.01,.32Z"/><polygon class="cls-1" points="1415.25 244.73 1414.81 244.81 1415.18 244.97 1415.25 244.73"/><polygon class="cls-1" points="1521 361.94 1521.39 362.14 1521.46 361.82 1521 361.94"/><path class="cls-1" d="M1497.01,362.15c.17-.05,.27-.21,.4-.32-.08-.17-.19-.32-.32-.45-.99-.66-2.19-.9-3.35-.67-.65,.09-.85,.35-.55,.69,1.03,.94,2.51,1.23,3.82,.75h0Z"/><path class="cls-1" d="M1320.42,411.18c.07,.1,.42,.11,.64,.16l.62-.25c-.16-.14-.35-.24-.55-.31-.65-.09-.94,.08-.71,.4Z"/><path class="cls-1" d="M1473.13,351.38c-.02,.15,.04,.3,.15,.4,0,.06,.26,.05,.4,.07s.13-.27,.11-.39c-.07-.14-.17-.27-.28-.38-.16,.1-.38,.19-.38,.3h0Z"/><path class="cls-1" d="M1464.7,288.76c-.55-.37-1.28-.33-1.8,.08-.82,.64-.82,1,0,1.62,.53,.39,1.27,.37,1.78-.05,.22-.26,.42-.54,.59-.83-.06-.34-.27-.64-.57-.82Z"/><path class="cls-1" d="M1336.92,116.09c.64,0,.91-.13,.68-.42-.07-.1-.39-.1-.6-.14l-.58,.26c.17,.1,.32,.28,.5,.3h0Z"/><path class="cls-1" d="M1280.14,137.64c0-.13-.15-.3-.29-.41-.18-.11-.37-.21-.56-.29-.5-.26-.9-.2-1.15,.2-.08,.13-.15,.33-.07,.45,.27,.31,.67,.49,1.09,.47,.5-.02,.89-.15,.98-.42h0Z"/><path class="cls-1" d="M1019.46,1037.59c-.17-.39-.58-.62-1-.56-.46,0-.9,.14-1.28,.39-.44,.27-.6,.56-.33,.81,.36,.27,.82,.39,1.27,.33,.45-.01,.89-.19,1.21-.51,.11-.12,.16-.29,.13-.46Z"/><polygon class="cls-1" points="935.56 1039 935.69 1039.29 935.93 1039.04 935.56 1039"/><path class="cls-1" d="M1058.79,1038.98c.09-.11,.12-.25,.08-.39-.07-.3-.37-.49-.67-.42-.03,0-.06,.02-.09,.03-.15,.07-.26,.18-.33,.33-.12,.31,.06,.57,.52,.71,.19-.03,.36-.12,.49-.26h0Z"/><polygon class="cls-1" points="334.96 1036.93 335.1 1037.2 335.34 1036.97 334.96 1036.93"/></svg>